<svg width="44" height="40" viewBox="0 0 44 40" fill="none" xmlns="http://www.w3.org/2000/svg">
<g id="Group">
<path id="Vector" d="M19.9757 24.2345H23.9703C25.0298 24.2345 26.0458 23.8136 26.7949 23.0645C27.5441 22.3153 27.9649 21.2993 27.9649 20.2399C27.9649 19.1804 27.5441 18.1644 26.7949 17.4152C26.0458 16.6661 25.0298 16.2452 23.9703 16.2452H17.9784C16.78 16.2452 15.7813 16.6447 15.1821 17.4436L3.99719 28.2291" stroke="#E9CC3F" stroke-width="3" stroke-linecap="round" stroke-linejoin="round"/>
<path id="Vector_2" d="M11.9866 36.2185L15.1823 33.4222C15.7815 32.6233 16.7801 32.2239 17.9785 32.2239H25.9677C28.1648 32.2239 30.1621 31.4249 31.5602 29.8271L40.7479 21.0389C41.5186 20.3106 41.9684 19.3059 41.9984 18.2458C42.0284 17.1858 41.636 16.1573 40.9076 15.3865C40.1793 14.6158 39.1746 14.166 38.1145 14.136C37.0545 14.106 36.026 14.4984 35.2552 15.2268L26.8665 23.0163M2 26.2319L13.9839 38.2158" stroke="#E9CC3F" stroke-width="3" stroke-linecap="round" stroke-linejoin="round"/>
<path id="Vector_3" d="M36.953 13.2493C38.3511 11.8512 39.949 10.0536 39.949 7.85659C40.0886 6.63609 39.812 5.40421 39.1639 4.36058C38.5159 3.31695 37.5344 2.52273 36.3786 2.10662C35.2227 1.69052 33.9602 1.67692 32.7957 2.06802C31.6312 2.45912 30.6328 3.23201 29.9624 4.26144C29.2494 3.31188 28.2508 2.6159 27.1132 2.27568C25.9755 1.93545 24.7588 1.9689 23.6415 2.37111C22.5243 2.77332 21.5654 3.5231 20.9056 4.51039C20.2459 5.49768 19.92 6.67047 19.9759 7.85659C19.9759 10.2534 21.5737 11.8512 22.9718 13.4491L29.9624 20.2399L36.953 13.2493Z" stroke="#E9CC3F" stroke-width="3" stroke-linecap="round" stroke-linejoin="round"/>
</g>
</svg>
