<svg width="44" height="40" viewBox="0 0 44 40" fill="none" xmlns="http://www.w3.org/2000/svg">
<g id="Group">
<path id="Vector" d="M20 29.8792L24 33.8792C24.394 34.2731 24.8617 34.5856 25.3764 34.7988C25.8912 35.0121 26.4428 35.1218 27 35.1218C27.5572 35.1218 28.1088 35.0121 28.6236 34.7988C29.1383 34.5856 29.606 34.2731 30 33.8792C30.394 33.4852 30.7065 33.0175 30.9197 32.5027C31.1329 31.988 31.2426 31.4363 31.2426 30.8792C31.2426 30.322 31.1329 29.7703 30.9197 29.2556C30.7065 28.7408 30.394 28.2731 30 27.8792" stroke="#E9CC3F" stroke-width="3" stroke-linecap="round" stroke-linejoin="round"/>
<path id="Vector_2" d="M26.0002 23.8792L31.0002 28.8792C31.7959 29.6749 32.875 30.1218 34.0002 30.1218C35.1254 30.1218 36.2046 29.6749 37.0002 28.8792C37.7959 28.0836 38.2429 27.0044 38.2429 25.8792C38.2429 24.754 37.7959 23.6748 37.0002 22.8792L29.2402 15.1192C28.1152 13.9956 26.5902 13.3645 25.0002 13.3645C23.4102 13.3645 21.8852 13.9956 20.7602 15.1192L19.0002 16.8792C18.2046 17.6748 17.1254 18.1218 16.0002 18.1218C14.875 18.1218 13.7959 17.6748 13.0002 16.8792C12.2046 16.0835 11.7576 15.0044 11.7576 13.8792C11.7576 12.754 12.2046 11.6748 13.0002 10.8792L18.6202 5.25918C20.4447 3.43947 22.824 2.28028 25.3815 1.96513C27.939 1.64997 30.5285 2.19684 32.7402 3.51918L33.6802 4.07918C34.5318 4.59316 35.5443 4.77142 36.5202 4.57918L40.0002 3.87918" stroke="#E9CC3F" stroke-width="3" stroke-linecap="round" stroke-linejoin="round"/>
<path id="Vector_3" d="M40 1.87915L42 23.8792H38M4 1.87915L2 23.8792L15 36.8792C15.7956 37.6748 16.8748 38.1218 18 38.1218C19.1252 38.1218 20.2044 37.6748 21 36.8792C21.7956 36.0835 22.2426 35.0044 22.2426 33.8792C22.2426 32.754 21.7956 31.6748 21 30.8792M4 3.87915H20" stroke="#E9CC3F" stroke-width="3" stroke-linecap="round" stroke-linejoin="round"/>
</g>
</svg>
