<svg width="44" height="44" viewBox="0 0 44 44" fill="none" xmlns="http://www.w3.org/2000/svg">
<g id="Group">
<path id="Vector" d="M19.9758 27.9918H23.9704C25.0299 27.9918 26.0459 27.5709 26.7951 26.8218C27.5442 26.0727 27.9651 25.0566 27.9651 23.9972C27.9651 22.9377 27.5442 21.9217 26.7951 21.1726C26.0459 20.4234 25.0299 20.0026 23.9704 20.0026H17.9785C16.7801 20.0026 15.7815 20.402 15.1823 21.2009L3.99731 31.9864" stroke="#E9CC3F" stroke-width="3" stroke-linecap="round" stroke-linejoin="round"/>
<path id="Vector_2" d="M11.9866 39.9758L15.1823 37.1796C15.7815 36.3806 16.7801 35.9812 17.9785 35.9812H25.9677C28.1648 35.9812 30.1621 35.1823 31.5602 33.5844L40.7479 24.7962C41.5186 24.0679 41.9684 23.0632 41.9984 22.0031C42.0284 20.9431 41.636 19.9146 40.9076 19.1439C40.1793 18.3731 39.1746 17.9233 38.1145 17.8933C37.0545 17.8634 36.026 18.2557 35.2552 18.9841L26.8665 26.7736M2 29.9893L13.9839 41.9731" stroke="#E9CC3F" stroke-width="3" stroke-linecap="round" stroke-linejoin="round"/>
<path id="Vector_3" d="M29.9624 21.8002C33.1613 21.8002 35.7546 19.207 35.7546 16.008C35.7546 12.8091 33.1613 10.2158 29.9624 10.2158C26.7634 10.2158 24.1702 12.8091 24.1702 16.008C24.1702 19.207 26.7634 21.8002 29.9624 21.8002Z" stroke="#E9CC3F" stroke-width="3" stroke-linecap="round" stroke-linejoin="round"/>
<path id="Vector_4" d="M9.98925 14.0107C13.2985 14.0107 15.9812 11.328 15.9812 8.01878C15.9812 4.70953 13.2985 2.02686 9.98925 2.02686C6.68 2.02686 3.99731 4.70953 3.99731 8.01878C3.99731 11.328 6.68 14.0107 9.98925 14.0107Z" stroke="#E9CC3F" stroke-width="3" stroke-linecap="round" stroke-linejoin="round"/>
</g>
</svg>
