<svg width="38" height="38" viewBox="0 0 38 38" fill="none" xmlns="http://www.w3.org/2000/svg">
<g id="Group">
<path id="Vector" d="M17.2289 23.8866H20.7242C21.6512 23.8866 22.5402 23.5183 23.1957 22.8628C23.8512 22.2073 24.2195 21.3183 24.2195 20.3913C24.2195 19.4643 23.8512 18.5752 23.1957 17.9197C22.5402 17.2642 21.6512 16.896 20.7242 16.896H15.4812C14.4326 16.896 13.5588 17.2455 13.0345 17.9446L3.24768 27.3819" stroke="#E9CC3F" stroke-width="2" stroke-linecap="round" stroke-linejoin="round"/>
<path id="Vector_2" d="M10.2382 34.3724L13.0345 31.9257C13.5588 31.2266 14.4326 30.8771 15.4812 30.8771H22.4718C24.3942 30.8771 26.1418 30.1781 27.3652 28.7799L35.4044 21.0903C36.0788 20.453 36.4724 19.5739 36.4986 18.6463C36.5248 17.7188 36.1815 16.8188 35.5442 16.1444C34.9069 15.4701 34.0277 15.0764 33.1002 15.0502C32.1727 15.024 31.2727 15.3673 30.5983 16.0046L23.2582 22.8205M1.5 25.6342L11.9859 36.1201" stroke="#E9CC3F" stroke-width="2" stroke-linecap="round" stroke-linejoin="round"/>
<path id="Vector_3" d="M25.9671 18.4686C28.7662 18.4686 31.0353 16.1995 31.0353 13.4005C31.0353 10.6014 28.7662 8.33228 25.9671 8.33228C23.168 8.33228 20.8989 10.6014 20.8989 13.4005C20.8989 16.1995 23.168 18.4686 25.9671 18.4686Z" stroke="#E9CC3F" stroke-width="2" stroke-linecap="round" stroke-linejoin="round"/>
<path id="Vector_4" d="M8.49063 11.6529C11.3862 11.6529 13.7336 9.30553 13.7336 6.40993C13.7336 3.51434 11.3862 1.16699 8.49063 1.16699C5.59503 1.16699 3.24768 3.51434 3.24768 6.40993C3.24768 9.30553 5.59503 11.6529 8.49063 11.6529Z" stroke="#E9CC3F" stroke-width="2" stroke-linecap="round" stroke-linejoin="round"/>
</g>
</svg>
