<svg width="38" height="34" viewBox="0 0 38 34" fill="none" xmlns="http://www.w3.org/2000/svg">
<g id="Group">
<path id="Vector" d="M17.25 25.6206L20.75 29.1206C21.0947 29.4653 21.504 29.7388 21.9544 29.9253C22.4048 30.1119 22.8875 30.2079 23.375 30.2079C23.8625 30.2079 24.3452 30.1119 24.7956 29.9253C25.246 29.7388 25.6553 29.4653 26 29.1206C26.3447 28.7759 26.6182 28.3667 26.8047 27.9163C26.9913 27.4659 27.0873 26.9831 27.0873 26.4956C27.0873 26.0081 26.9913 25.5254 26.8047 25.075C26.6182 24.6246 26.3447 24.2153 26 23.8706" stroke="#E9CC3F" stroke-width="2" stroke-linecap="round" stroke-linejoin="round"/>
<path id="Vector_2" d="M22.5 20.3708L26.875 24.7458C27.5712 25.442 28.5155 25.8331 29.5 25.8331C30.4846 25.8331 31.4288 25.442 32.125 24.7458C32.8212 24.0496 33.2123 23.1054 33.2123 22.1208C33.2123 21.1362 32.8212 20.192 32.125 19.4958L25.335 12.7058C24.3507 11.7226 23.0163 11.1704 21.625 11.1704C20.2338 11.1704 18.8994 11.7226 17.915 12.7058L16.375 14.2458C15.6788 14.942 14.7346 15.3331 13.75 15.3331C12.7655 15.3331 11.8212 14.942 11.125 14.2458C10.4288 13.5496 10.0377 12.6053 10.0377 11.6208C10.0377 10.6362 10.4288 9.69197 11.125 8.99577L16.0425 4.07826C17.639 2.48601 19.7209 1.47172 21.9587 1.19596C24.1965 0.920192 26.4623 1.39871 28.3975 2.55576L29.22 3.04576C29.9652 3.49549 30.8511 3.65147 31.705 3.48326L34.75 2.87076" stroke="#E9CC3F" stroke-width="2" stroke-linecap="round" stroke-linejoin="round"/>
<path id="Vector_3" d="M34.75 1.12061L36.5 20.3707H33M3.25 1.12061L1.5 20.3707L12.875 31.7457C13.5712 32.4419 14.5154 32.833 15.5 32.833C16.4846 32.833 17.4288 32.4419 18.125 31.7457C18.8212 31.0495 19.2123 30.1052 19.2123 29.1207C19.2123 28.1361 18.8212 27.1919 18.125 26.4957M3.25 2.87061H17.25" stroke="#E9CC3F" stroke-width="2" stroke-linecap="round" stroke-linejoin="round"/>
</g>
</svg>
