<svg width="36" height="37" viewBox="0 0 36 37" fill="none" xmlns="http://www.w3.org/2000/svg">
<path id="Vector" d="M18.8873 10.7907V17.9457M18.8873 25.1006H18.9052M11.5535 32.2555C14.9675 34.0068 18.8946 34.4812 22.6274 33.5931C26.3601 32.7051 29.6529 30.513 31.9125 27.412C34.172 24.3109 35.2496 20.5048 34.9512 16.6795C34.6528 12.8542 32.9979 9.26131 30.2848 6.5482C27.5717 3.83509 23.9788 2.18022 20.1535 1.8818C16.3282 1.58337 12.5221 2.66102 9.42104 4.92055C6.32 7.18008 4.12794 10.4729 3.23989 14.2056C2.35184 17.9384 2.82619 21.8655 4.57747 25.2795L1 35.833L11.5535 32.2555Z" stroke="#E9CC3F" stroke-width="2" stroke-linecap="round" stroke-linejoin="round"/>
</svg>
