<svg width="18" height="16" viewBox="0 0 18 16" fill="none" xmlns="http://www.w3.org/2000/svg">
<g id="Group">
<path id="Vector" d="M17.3889 8V2.26389C17.3889 1.82923 17.2162 1.41237 16.9089 1.10502C16.6015 0.797668 16.1847 0.625 15.75 0.625H2.63889C2.20423 0.625 1.78737 0.797668 1.48002 1.10502C1.17267 1.41237 1 1.82923 1 2.26389V12.0972C1 12.9986 1.7375 13.7361 2.63889 13.7361H9.19444" stroke="#2B2B2B" stroke-linecap="round" stroke-linejoin="round"/>
<path id="Vector_2" d="M17.3889 3.0835L10.0385 7.75433C9.78549 7.91283 9.49298 7.99689 9.19444 7.99689C8.89591 7.99689 8.6034 7.91283 8.35042 7.75433L1 3.0835M14.9306 10.4585V15.3752M12.4722 12.9168H17.3889" stroke="#2B2B2B" stroke-linecap="round" stroke-linejoin="round"/>
</g>
</svg>
