<svg width="17" height="16" viewBox="0 0 17 16" fill="none" xmlns="http://www.w3.org/2000/svg">
<path id="Vector" d="M12.9828 0.500073L15.9995 3.51088M15.9995 3.51088L12.9828 6.52169M15.9995 3.51088H9.96597M15.9995 11.7304V13.9885C16.0004 14.1981 15.9574 14.4056 15.8732 14.5977C15.7891 14.7898 15.6657 14.9622 15.5109 15.1039C15.3561 15.2456 15.1734 15.3535 14.9744 15.4207C14.7754 15.4878 14.5646 15.5128 14.3554 15.4939C12.0347 15.2419 9.80545 14.4505 7.84668 13.1831C6.02441 12.0274 4.47945 10.4855 3.3215 8.66689C2.04715 6.70312 1.25396 4.4675 1.00612 2.14096C0.987275 1.93282 1.01206 1.72303 1.0789 1.52497C1.14574 1.32691 1.25317 1.1449 1.39436 0.990549C1.53554 0.836194 1.70738 0.712869 1.89893 0.628425C2.09049 0.543982 2.29756 0.50027 2.50697 0.500073H4.76956C5.13558 0.496478 5.49041 0.625833 5.76793 0.864029C6.04546 1.10222 6.22672 1.43301 6.27795 1.79472C6.37319 2.51741 6.55031 3.22698 6.80589 3.90981C6.90736 4.17922 6.92932 4.47202 6.86917 4.7535C6.80902 5.03498 6.66928 5.29336 6.4665 5.49801L5.50867 6.45394C6.58231 8.33837 8.14568 9.89864 10.0338 10.9702L10.9917 10.0142C11.1967 9.81185 11.4556 9.67238 11.7377 9.61235C12.0197 9.55232 12.3131 9.57424 12.583 9.67551C13.2672 9.93058 13.9782 10.1073 14.7023 10.2024C15.0687 10.254 15.4033 10.4381 15.6424 10.7199C15.8816 11.0016 16.0087 11.3612 15.9995 11.7304Z" stroke="#2B2B2B" stroke-linecap="round" stroke-linejoin="round"/>
</svg>
