<svg width="63" height="64" viewBox="0 0 63 64" fill="none" xmlns="http://www.w3.org/2000/svg">
<g id="Frame 60">
<path id="Vector" d="M37.3268 2.00029C43.3583 2.64692 48.9923 5.36878 53.2969 9.71572C57.6016 14.0627 60.3191 19.7743 61 25.9061M37.3268 14.0435C40.2371 14.6274 42.9078 16.0879 44.9921 18.2355C47.0764 20.383 48.4782 23.1185 49.0154 26.0867M60.852 46.9215V55.9539C60.8554 56.7925 60.6866 57.6224 60.3564 58.3907C60.0263 59.159 59.542 59.8487 58.9347 60.4156C58.3275 60.9824 57.6105 61.414 56.8298 61.6826C56.0491 61.9513 55.2219 62.051 54.4011 61.9756C45.2955 60.9678 36.549 57.802 28.8636 52.7324C21.7137 48.1098 15.6519 41.9422 11.1086 34.6675C6.10859 26.8125 2.99643 17.87 2.02402 8.56385C1.95007 7.73126 2.04732 6.89213 2.30958 6.09988C2.57184 5.30763 2.99335 4.57962 3.54729 3.9622C4.10123 3.34478 4.77546 2.85148 5.52704 2.5137C6.27863 2.17593 7.0911 2.00108 7.91274 2.00029H16.7902C18.2263 1.98591 19.6185 2.50333 20.7074 3.45612C21.7963 4.4089 22.5075 5.73203 22.7085 7.17888C23.0822 10.0696 23.7771 12.9079 24.7799 15.6392C25.1781 16.7169 25.2642 17.8881 25.0282 19.014C24.7922 20.1399 24.2439 21.1734 23.4483 21.992L19.6902 25.8158C23.9027 33.3535 30.0367 39.5946 37.4451 43.8806L41.2032 40.0569C42.0078 39.2474 43.0236 38.6895 44.1302 38.4494C45.2368 38.2093 46.3879 38.2969 47.4471 38.702C50.1315 39.7223 52.9211 40.4294 55.7623 40.8096C57.1998 41.0159 58.5125 41.7526 59.451 42.8795C60.3894 44.0064 60.8881 45.445 60.852 46.9215Z" stroke="#27AE4E" stroke-width="4" stroke-linecap="round" stroke-linejoin="round"/>
</g>
</svg>
