<svg width="17" height="16" viewBox="0 0 17 16" fill="none" xmlns="http://www.w3.org/2000/svg">
<path id="Vector" d="M9.98138 0.500073C11.5148 0.66173 12.9472 1.34219 14.0416 2.42893C15.136 3.51567 15.8269 4.94358 16 6.47652M9.98138 3.51088C10.7213 3.65686 11.4003 4.02198 11.9302 4.55887C12.4601 5.09576 12.8165 5.77962 12.9531 6.52169M15.9624 11.7304V13.9885C15.9632 14.1981 15.9203 14.4056 15.8364 14.5977C15.7524 14.7898 15.6293 14.9622 15.4749 15.1039C15.3205 15.2456 15.1383 15.3535 14.9398 15.4207C14.7413 15.4878 14.531 15.5128 14.3223 15.4939C12.0073 15.2419 9.78364 14.4505 7.82972 13.1831C6.01197 12.0274 4.47083 10.4855 3.31575 8.66689C2.04456 6.70312 1.25333 4.4675 1.00611 2.14096C0.987306 1.93282 1.01203 1.72303 1.07871 1.52497C1.14538 1.32691 1.25255 1.1449 1.39338 0.990549C1.53421 0.836194 1.70562 0.712869 1.89671 0.628425C2.08779 0.543981 2.29435 0.50027 2.50324 0.500073H4.76022C5.12533 0.496478 5.47929 0.625833 5.75613 0.864029C6.03296 1.10222 6.21378 1.43301 6.26488 1.79472C6.35989 2.51741 6.53656 3.22698 6.79151 3.90981C6.89273 4.17922 6.91464 4.47202 6.85463 4.7535C6.79463 5.03498 6.65523 5.29336 6.45296 5.49801L5.4975 6.45394C6.56848 8.33837 8.12798 9.89864 10.0115 10.9702L10.9669 10.0142C11.1715 9.81185 11.4297 9.67238 11.7111 9.61235C11.9924 9.55232 12.2851 9.57423 12.5543 9.67551C13.2368 9.93058 13.946 10.1073 14.6684 10.2024C15.0338 10.254 15.3676 10.4381 15.6062 10.7199C15.8448 11.0016 15.9715 11.3612 15.9624 11.7304Z" stroke="#444444" stroke-linecap="round" stroke-linejoin="round"/>
</svg>
